<?xml version="1.0" standalone="no"?>
<!DOCTYPE svg PUBLIC "-//W3C//DTD SVG 20010904//EN"
 "http://www.w3.org/TR/2001/REC-SVG-20010904/DTD/svg10.dtd">
<svg version="1.0" xmlns="http://www.w3.org/2000/svg"
 width="232.000000pt" height="284.000000pt" viewBox="0 0 232.000000 284.000000"
 preserveAspectRatio="xMidYMid meet">

<g transform="translate(0.000000,284.000000) scale(0.100000,-0.100000)"
fill="#000000" stroke="none">
<path d="M994 2810 c-32 -13 -72 -67 -80 -106 -5 -28 -2 -42 15 -65 19 -25 20
-29 5 -29 -10 0 -15 -3 -12 -6 4 -3 39 6 78 20 67 24 90 26 90 7 0 -4 -18 -13
-40 -20 -45 -13 -57 -37 -12 -26 75 18 114 113 77 185 -24 46 -69 61 -121 40z"/>
<path d="M886 2599 c-14 -17 -26 -34 -26 -39 0 -20 -68 -71 -115 -87 -58 -19
-112 -51 -140 -83 -12 -14 -2 -9 27 12 25 20 77 48 115 62 71 27 94 46 132
108 12 21 30 42 39 48 9 5 12 10 5 10 -6 0 -23 -14 -37 -31z"/>
<path d="M975 2579 c-4 -6 -5 -12 -2 -15 2 -3 7 2 10 11 7 17 1 20 -8 4z"/>
<path d="M1040 2561 c0 -6 -12 -23 -27 -37 -21 -19 -23 -23 -7 -19 16 6 15 3
-5 -14 -13 -12 -19 -21 -14 -21 20 0 71 85 58 98 -3 3 -5 0 -5 -7z"/>
<path d="M822 2422 c-16 -18 -22 -21 -18 -9 3 10 2 15 -3 12 -6 -3 -9 -14 -8
-25 1 -18 5 -16 34 12 18 18 33 33 33 35 0 10 -18 -2 -38 -25z"/>
<path d="M885 2440 c3 -5 12 -7 20 -3 21 7 19 13 -6 13 -11 0 -18 -4 -14 -10z"/>
<path d="M180 2364 c-58 -10 -67 -15 -78 -39 -22 -47 -15 -94 18 -127 l30 -30
-10 28 c-8 21 -7 31 5 44 8 9 15 25 15 35 0 15 6 17 35 12 19 -3 35 -2 35 2 0
4 16 5 35 3 19 -2 35 -9 35 -15 0 -6 6 -2 14 9 11 14 11 21 3 26 -7 4 -8 8 -4
8 4 0 0 9 -10 20 -19 20 -79 31 -123 24z"/>
<path d="M531 2320 c-24 -22 -61 -44 -82 -50 -20 -6 -61 -26 -89 -45 -29 -19
-57 -32 -63 -28 -5 3 -7 1 -3 -5 4 -6 -31 -31 -86 -62 -97 -55 -124 -79 -160
-145 -19 -34 -23 -60 -26 -176 -4 -134 -4 -137 19 -154 15 -11 17 -15 6 -12
-25 9 -21 -4 15 -43 29 -32 57 -101 78 -190 4 -19 15 -61 24 -93 9 -32 16 -74
16 -92 0 -19 4 -35 9 -35 4 0 11 -18 14 -40 3 -22 19 -70 36 -107 29 -61 33
-65 45 -47 12 16 12 22 -4 44 -19 28 -45 99 -38 106 3 2 10 -13 16 -33 7 -21
20 -48 30 -61 l18 -23 87 45 c88 46 131 55 169 35 35 -19 32 -1 -8 38 -21 21
-38 42 -39 47 0 4 -20 19 -45 33 -25 13 -37 22 -27 19 10 -3 22 -6 27 -6 5 0
29 -16 54 -35 25 -19 46 -32 46 -29 0 18 -35 66 -67 93 -27 23 -31 29 -13 21
14 -7 39 -28 56 -48 30 -34 33 -35 62 -23 39 16 60 40 72 81 8 29 6 39 -20 78
-17 25 -30 49 -30 54 0 5 -13 0 -29 -11 -37 -27 -51 -27 -20 -1 30 25 8 27
-46 4 -20 -8 -39 -13 -41 -11 -7 7 73 37 97 37 11 0 17 5 14 10 -4 7 181 10
549 10 l555 0 7 -35 6 -35 58 0 58 0 6 35 7 35 234 0 c150 0 235 4 235 10 0 6
-87 10 -240 10 -207 0 -240 -2 -240 -15 0 -8 -9 -15 -20 -15 -23 0 -26 -10 -8
-28 9 -9 3 -12 -30 -12 -23 0 -42 5 -42 10 0 6 5 10 10 10 6 0 10 5 10 10 0 6
-7 10 -15 10 -8 0 -15 8 -14 18 0 10 3 12 6 5 2 -7 22 -13 44 -13 33 0 40 4
45 25 4 14 4 50 2 80 -3 30 -1 55 4 55 4 0 8 -4 8 -10 0 -6 87 -10 240 -10
153 0 240 4 240 10 0 6 -84 10 -231 10 -186 0 -233 3 -245 14 -10 11 -14 40
-14 105 l0 91 -50 0 -50 0 0 -94 c0 -76 -3 -95 -16 -100 -9 -3 -274 -6 -590
-6 l-574 0 0 -75 c0 -74 0 -75 -26 -75 -34 0 -78 -26 -97 -60 -26 -42 -147
-169 -178 -185 -34 -18 -53 -19 -23 -2 60 35 156 134 198 205 15 25 -29 -5
-57 -38 -14 -16 -27 -25 -29 -19 -2 7 -12 7 -31 0 -16 -6 -38 -11 -50 -10 -12
0 0 7 28 14 27 8 51 12 54 10 2 -3 23 13 46 34 40 36 95 61 138 61 13 0 17 8
17 34 0 55 -8 63 -79 91 -38 14 -79 37 -92 52 -23 25 -22 25 22 -5 25 -17 59
-34 75 -38 28 -6 28 -6 -10 23 -23 18 -44 45 -52 69 -18 51 -18 53 9 48 20 -4
20 -4 -3 6 -13 6 -28 16 -32 23 -12 19 -9 70 6 90 12 15 15 15 26 2 17 -20 24
-19 35 8 7 14 45 39 109 70 54 26 97 50 94 52 -7 7 -174 -77 -200 -102 l-26
-25 -24 24 c-12 12 -26 22 -30 20 -5 -1 -8 3 -8 10 0 6 -13 -7 -29 -30 -16
-22 -35 -43 -42 -48 -7 -4 -1 8 13 27 48 66 46 70 -27 45 -19 -7 -19 -7 -1 5
11 6 45 17 75 23 53 10 56 13 56 41 0 22 11 41 45 74 40 39 38 38 -20 -10 -36
-29 -67 -55 -70 -57 -3 -2 4 -11 15 -19 11 -8 14 -13 6 -11 -27 8 -51 53 -64
118 l-14 65 46 32 c25 18 67 40 93 49 26 8 50 20 53 25 4 5 11 9 17 9 6 0 1
-12 -13 -27 -23 -27 -23 -27 8 1 18 16 31 32 28 35 -3 2 7 17 22 33 38 40 25
34 -26 -12z m-232 -202 l-1 -53 -9 44 c-8 40 -5 61 7 61 2 0 4 -24 3 -52z
m-94 -8 c-3 -5 -16 -15 -28 -21 -21 -10 -21 -9 2 10 25 23 36 27 26 11z m-75
-235 c26 -31 -7 -14 -41 22 l-34 36 31 -21 c17 -12 37 -28 44 -37z m1680 -128
c0 -41 3 -115 6 -165 l7 -92 -43 0 -43 0 7 92 c3 50 6 124 6 165 l0 73 30 0
30 0 0 -73z m-78 -189 l-4 -68 -579 0 -579 0 0 60 0 60 580 0 c435 0 580 3
580 12 0 6 1 9 3 7 1 -2 1 -34 -1 -71z m-1573 26 c17 -9 53 -19 79 -24 44 -7
45 -8 12 -10 -29 -1 -32 -3 -15 -10 12 -5 14 -9 6 -9 -20 -1 -97 37 -111 55
-16 18 -11 18 29 -2z m344 -11 c3 -5 -27 -8 -66 -9 -44 0 -62 3 -47 7 34 10
108 11 113 2z m-10 -30 c-13 -2 -35 -2 -50 0 -16 2 -5 4 22 4 28 0 40 -2 28
-4z m-196 -19 c-3 -3 -12 -4 -19 -1 -8 3 -5 6 6 6 11 1 17 -2 13 -5z m116
-271 c-7 -2 -21 -2 -30 0 -10 3 -4 5 12 5 17 0 24 -2 18 -5z m-171 -65 c-7 -7
-12 -8 -12 -2 0 14 12 26 19 19 2 -3 -1 -11 -7 -17z"/>
<path d="M1770 1584 c0 -14 -5 -34 -10 -45 -9 -17 -7 -19 18 -19 l28 0 -10 45
c-12 49 -26 60 -26 19z"/>
<path d="M759 2343 c-13 -16 -12 -17 4 -4 9 7 17 15 17 17 0 8 -8 3 -21 -13z"/>
<path d="M635 2234 c-43 -25 -71 -31 -59 -12 5 7 3 8 -5 4 -7 -5 -10 -11 -6
-14 3 -3 -12 -24 -32 -46 l-38 -41 40 36 c22 19 59 44 83 54 23 10 47 24 53
32 15 17 12 16 -36 -13z"/>
<path d="M187 2233 c-3 -5 10 -8 28 -8 18 0 31 3 28 8 -2 4 -15 7 -28 7 -13 0
-26 -3 -28 -7z"/>
<path d="M288 2223 c7 -3 16 -2 19 1 4 3 -2 6 -13 5 -11 0 -14 -3 -6 -6z"/>
<path d="M718 2159 c-29 -15 -38 -26 -38 -44 0 -14 -4 -25 -9 -25 -5 0 -11
-11 -13 -25 -3 -14 -4 -25 -3 -25 8 0 41 77 38 87 -3 7 3 9 16 6 23 -6 27 -18
11 -28 -5 -3 -10 -26 -10 -50 0 -41 -3 -46 -37 -64 -21 -10 -49 -32 -63 -48
l-25 -28 25 21 c14 12 44 33 68 48 27 17 42 33 42 47 0 13 4 18 12 13 7 -5 8
-3 2 7 -17 28 -3 69 25 69 9 0 6 43 -3 57 -1 0 -18 -8 -38 -18z m22 -9 c-13
-8 -12 -10 4 -10 11 0 17 -3 13 -6 -3 -3 -15 -3 -28 1 -17 6 -19 9 -8 16 8 5
19 9 24 9 6 0 3 -5 -5 -10z"/>
<path d="M335 2150 c-3 -6 1 -7 9 -4 18 7 21 14 7 14 -6 0 -13 -4 -16 -10z"/>
<path d="M121 2124 c0 -11 3 -14 6 -6 3 7 2 16 -1 19 -3 4 -6 -2 -5 -13z"/>
<path d="M554 1879 c-10 -12 -41 -39 -67 -60 -27 -22 -44 -39 -38 -39 11 0
140 119 130 120 -3 0 -14 -10 -25 -21z"/>
<path d="M504 1875 c-10 -8 -14 -15 -8 -15 6 0 17 7 24 15 16 19 9 19 -16 0z"/>
<path d="M700 1308 c0 -16 4 -28 9 -28 10 0 28 -43 34 -80 l4 -25 2 27 c0 14
-10 50 -24 80 -21 44 -25 49 -25 26z"/>
<path d="M672 1239 c-12 -15 -38 -34 -57 -40 -19 -7 -35 -17 -35 -21 0 -24 83
13 105 46 24 37 14 48 -13 15z"/>
<path d="M751 1165 c1 -19 18 -51 18 -35 0 8 -4 22 -9 30 -5 8 -9 11 -9 5z"/>
<path d="M596 1109 c9 -44 10 -45 16 -14 3 14 -1 30 -8 36 -12 9 -13 5 -8 -22z"/>
<path d="M670 1101 c0 -10 19 -25 25 -20 1 2 -3 10 -11 17 -8 7 -14 8 -14 3z"/>
<path d="M463 1081 c-97 -33 -173 -90 -173 -130 0 -10 14 -1 37 23 66 67 166
101 232 78 34 -12 40 -3 14 20 -29 24 -58 27 -110 9z"/>
<path d="M730 1079 c0 -5 5 -7 10 -4 6 3 10 8 10 11 0 2 -4 4 -10 4 -5 0 -10
-5 -10 -11z"/>
<path d="M610 1057 c0 -3 5 -17 11 -31 9 -19 9 -29 0 -39 -8 -11 -7 -23 5 -53
l16 -39 -22 20 -23 20 19 -29 c10 -17 22 -53 25 -80 l6 -51 2 53 c1 39 5 52
16 52 8 0 15 9 15 21 0 11 -4 18 -9 14 -5 -3 -17 3 -27 12 -17 17 -17 18 7 21
33 5 49 20 48 46 -1 20 -2 20 -6 1 -6 -23 -21 -35 -44 -35 -13 0 -16 9 -15 40
0 22 -5 45 -12 52 -6 6 -12 9 -12 5z"/>
<path d="M370 998 c-41 -29 -75 -72 -66 -87 4 -6 19 -11 33 -11 15 0 38 -10
52 -22 l25 -23 -22 29 c-28 36 -28 76 -1 110 25 32 22 32 -21 4z"/>
<path d="M710 963 c0 -13 39 -57 45 -51 2 2 -8 17 -21 33 -13 17 -24 24 -24
18z"/>
<path d="M673 943 c-7 -2 -13 -9 -13 -14 0 -6 9 -5 22 2 18 10 20 9 15 -5 -4
-10 -1 -16 9 -16 8 0 12 -4 9 -10 -3 -5 -1 -10 4 -10 17 0 13 32 -6 46 -19 14
-22 15 -40 7z"/>
<path d="M730 875 c-10 -13 -9 -15 11 -15 22 0 22 0 3 -14 -10 -8 -16 -18 -11
-22 4 -4 18 3 32 16 21 20 25 21 25 6 0 -20 -45 -39 -73 -30 -13 4 -17 2 -13
-5 16 -25 96 -5 96 24 0 8 5 15 12 15 6 0 3 6 -8 14 -11 8 -21 10 -25 5 -3 -5
-13 -7 -22 -3 -9 3 -14 10 -11 15 9 15 -2 10 -16 -6z"/>
<path d="M677 863 c-4 -6 5 -15 18 -21 26 -12 31 -7 15 18 -9 13 -10 13 -10 0
0 -12 -2 -12 -9 -1 -5 7 -11 9 -14 4z"/>
<path d="M463 805 c10 -9 36 -54 59 -99 64 -127 132 -226 200 -291 l63 -60
-56 60 c-71 75 -123 152 -196 290 -32 60 -65 111 -73 113 -11 4 -10 1 3 -13z"/>
<path d="M508 803 c11 -20 49 -51 82 -67 8 -4 4 1 -10 11 -14 10 -38 31 -54
48 -21 22 -26 24 -18 8z"/>
<path d="M797 786 c-18 -14 -24 -46 -8 -46 23 0 41 14 41 30 0 25 -12 31 -33
16z"/>
<path d="M755 730 c3 -5 8 -10 11 -10 2 0 4 5 4 10 0 6 -5 10 -11 10 -5 0 -7
-4 -4 -10z"/>
<path d="M831 534 c0 -11 3 -14 6 -6 3 7 2 16 -1 19 -3 4 -6 -2 -5 -13z"/>
<path d="M841 488 c0 -10 11 -47 25 -83 20 -49 38 -76 70 -103 24 -20 44 -41
44 -48 0 -6 -13 -17 -29 -24 -28 -11 -47 -37 -36 -48 3 -3 23 9 45 27 22 18
46 29 53 26 6 -3 -16 20 -50 52 -57 54 -97 122 -116 198 -4 16 -5 17 -6 3z"/>
<path d="M812 315 c9 -11 21 -31 27 -45 7 -17 10 -20 10 -8 1 10 -11 30 -26
46 -16 15 -20 19 -11 7z"/>
<path d="M877 283 c-4 -3 -7 -16 -7 -28 0 -11 -5 -26 -11 -32 -7 -7 -7 -13 -1
-17 6 -3 14 4 18 16 8 26 45 58 58 50 5 -3 0 -9 -12 -13 -29 -11 -47 -45 -26
-53 8 -3 13 -2 10 2 -3 5 11 16 29 26 l34 19 -23 18 c-24 19 -57 25 -69 12z"/>
<path d="M964 198 c-37 -27 -54 -44 -35 -33 8 5 12 4 8 -1 -3 -6 -2 -16 3 -24
7 -11 11 -11 24 -1 11 10 16 10 16 2 0 -6 -7 -14 -16 -18 -10 -4 -27 7 -50 33
l-35 39 24 -55 c13 -30 28 -55 33 -56 5 0 16 -4 25 -8 11 -5 36 13 86 63 l71
69 -31 6 c-16 3 -32 4 -35 1 -3 -3 0 -5 6 -5 23 0 12 -32 -25 -71 -20 -21 -45
-39 -55 -39 -12 0 -5 12 27 41 25 23 45 45 45 50 0 17 -40 9 -50 -11 -6 -11
-16 -20 -22 -20 -7 0 1 14 17 30 35 36 13 42 -31 8z"/>
<path d="M1156 163 c-8 -25 -18 -28 -46 -13 -15 8 -23 4 -44 -21 -26 -30 -35
-56 -16 -44 23 14 8 -45 -16 -64 -15 -12 -24 -21 -20 -21 45 0 166 136 153
173 -2 7 -7 2 -11 -10z"/>
<path d="M1014 48 l-19 -23 23 19 c21 18 27 26 19 26 -2 0 -12 -10 -23 -22z"/>
</g>
</svg>
